# xmcd
#
# Track frame offsets:
#	150
#	13807
#	25112
#	37871
#	48373
#	59306
#	71570
#	84155
#	94427
#	107275
#	120630
#	131896
#	145801
#	157530
#	169135
#	186658
#	197236
#	210362
#	222004
#	233922
#
# Disc length: 3324
#
# Revision: 2
# Processed by: cddbd v1.5.1PL0 Copyright (c) Steve Scherf et al.
# Submitted via: EasyCDDAExtractor 6.5.0.1
# Normalized: r1:DSETVAR1
#
DISCID=0e0cfa14
DTITLE=Various Artist - Country Classics Disc 1
DYEAR=1900
DGENRE=Country
TTITLE0=Kenny Rodgers - Ruby, Dont Take Your Love To Town
TTITLE1=Patsy Cline - Just Out Of Reach
TTITLE2=Slim Whitman - Tennessee Waltz
TTITLE3=Crystal Gayle - Crying In The Rain
TTITLE4=Rodger Miller - King Of The Road
TTITLE5=Babby Bare - Streets Of Baltimore
TTITLE6=George Jones - A Girl I Used To Know
TTITLE7=Don Gibson - Sea Of Heartbreak
TTITLE8=Faron Young - There Goes My Evening
TTITLE9=Hank Thompson - The Wild Side Of Life
TTITLE10=Conway Twitty - Hello Darlin
TTITLE11=Willie Nelson - Blue Eyes Crying In The Rain (live)
TTITLE12=Marle Haggard - Okie From Muskogee (live)
TTITLE13=Charley Pride - My Eyes Can Only See As Far As You (live)
TTITLE14=Don Williams - I Believe In You (live)
TTITLE15=Jim Reeves - He'll Have To Go (broadcast)
TTITLE16=Johnny Cash - Ring Of Fire (live)
TTITLE17=Eddy Arnold - Bouquet Of Roses
TTITLE18=Hank Williams - Im So Lonesome, I Could Cry (broadcast)
TTITLE19=Don Gibson - Sweet Dreams
EXTD=
EXTT0=
EXTT1=
EXTT2=
EXTT3=
EXTT4=
EXTT5=
EXTT6=
EXTT7=
EXTT8=
EXTT9=
EXTT10=
EXTT11=
EXTT12=
EXTT13=
EXTT14=
EXTT15=
EXTT16=
EXTT17=
EXTT18=
EXTT19=
PLAYORDER=
